# xmcd CD database file
#
# Track frame offsets:
#	180
#	10882
#	23787
#	34675
#	51385
#	63063
#	78584
#	93137
#	106938
#	119589
#	131271
#	142254
#	151855
#	162805
#	173460
#	188876
#
# Disc length: 2676 seconds
#
# Revision: 7
# Processed by: cddbd v1.5.2PL0 Copyright (c) Steve Scherf et al.
# Submitted via: CDex 1.70beta2
#
DISCID=c40a7210
DTITLE=Country - Sampler - 16 Favourite Line Dance Hits
DYEAR=2001
DGENRE=Country
TTITLE0=Freddy Fender - Wasted Days And Wasted Nights
TTITLE1=Boxcar Willie - Hobo Heaven
TTITLE2=Tammy Wynette - Another Chance
TTITLE3=Mel Tillis - Rose Of El Paso
TTITLE4=Tex Williams - Bottom Of A Mountain
TTITLE5=Gene Watson - Carmen
TTITLE6=Freddy Fender - The Rains Came
TTITLE7=Freddy Weller - Games People Play
TTITLE8=Sweetharts Of The Rodeo - Hey Doll Baby
TTITLE9=Johnny Russell - Got No Reason For Going Home
TTITLE10=Gene Watson - Farewell Party
TTITLE11=Porter Wagoner - Sugar Foot Rag
TTITLE12=Boxcar Willie - Wabash Cannonball
TTITLE13=Freddy Fender - Before The Next Teardrop Falls
TTITLE14=Mel Tillis - Detroit City
TTITLE15=Moe Bandy - I'm Drunk Again
EXTD=YEAR: 2001
EXTT0=
EXTT1=
EXTT2=
EXTT3=
EXTT4=
EXTT5=
EXTT6=
EXTT7=
EXTT8=
EXTT9=
EXTT10=
EXTT11=
EXTT12=
EXTT13=
EXTT14=
EXTT15=
PLAYORDER=
